# xmcd CD database file
#
# Track frame offsets:
#	150
#	10634
#	25875
#	39370
#	51798
#	67809
#	80783
#	95816
#	112201
#	123459
#	135076
#	154929
#	166171
#	180893
#	195431
#	210114
#	221695
#	234801
#	245050
#	255569
#	269456
#	289274
#	305240
#
# Disc length: 4295 seconds
#
# Revision: 3
# Processed by: cddbd v1.5.2PL0 Copyright (c) Steve Scherf et al.
# Submitted via: CDex 1.70beta2
#
DISCID=3a10c517
DTITLE=Various Artist - Andrzej Smooth Jazz Compilation 1
DYEAR=2000
DGENRE=Jazz
TTITLE0=Louis Armstrong - What a Wonderful World (Bob Thiele/George David Weiss)
TTITLE1=Peggy Lee - Fever (Eddie Cooley/John Davenport)
TTITLE2=Dionne Wawrick - Walk On By (Burt Bacharach/Hal David)
TTITLE3=Dean Martin - Sway (Pablo Beltrán Ruiz/Norman Gimbel)
TTITLE4=Aretha Franklin - I Say A Little Prayer (Burt Bacharach/Hal David)
TTITLE5=Kay Starr - I Cry By Night
TTITLE6=Norah Jones - Come Away With Me
TTITLE7=Joss Stone - The Chokin' Kind
TTITLE8=Nat King Cole - Bidin' My Time (George Gershwin/Ira Gershwin)
TTITLE9=Les Baxter - Unchained Melody (Alex North/Hy Zaret)
TTITLE10=Randy Crawford - Rainy Night in Georgia
TTITLE11=Bryan Ferry - Falling in Love Again
TTITLE12=Shirley Bassey - (Where Do I Begin) Love Story (Francis Lai/Carl Sigman)
TTITLE13=Mama Cass - Dream A Little Dream of Me (Fabian Andre/Wilbur Schwandt)
TTITLE14=Jackie DeShannon - What The World Needs Now Is Love (Burt Bacharach/Hal David)
TTITLE15=Crystal Gayle - Don't It Make My Brown Eyes Blue (Richard Leigh)
TTITLE16=Bobbie Gentry - I'll Never Fall In Love Again (Burt Bacharach/Hal David)
TTITLE17=Julie London - Go Slow
TTITLE18=Dinah Washington - Call Me Irresponsible (Jimmy Van Heusen/Sammy Cahn)
TTITLE19=Alma Cogan - Somebody Loves Me (George Gershwin/Ballard MacDonald)
TTITLE20=Rodney Jones - Ain't No Sunshine (instr) (Bill Withers)
TTITLE21=Dusty Springfield - The Look of Love  (Burt Bacharach/Hal David)
TTITLE22=Ilya - Bellissimo
EXTD=YEAR: 2000
EXTT0=
EXTT1=
EXTT2=
EXTT3=
EXTT4=
EXTT5=
EXTT6=
EXTT7=
EXTT8=
EXTT9=
EXTT10=
EXTT11=
EXTT12=
EXTT13=
EXTT14=
EXTT15=
EXTT16=
EXTT17=
EXTT18=
EXTT19=
EXTT20=
EXTT21=
EXTT22=
PLAYORDER=
